<?xml version="1.0" encoding="utf-8"?>
<!-- Generator: Adobe Illustrator 16.0.0, SVG Export Plug-In . SVG Version: 6.00 Build 0)  -->
<!DOCTYPE svg PUBLIC "-//W3C//DTD SVG 1.1//EN" "http://www.w3.org/Graphics/SVG/1.1/DTD/svg11.dtd">
<svg version="1.1" xmlns="http://www.w3.org/2000/svg" xmlns:xlink="http://www.w3.org/1999/xlink" x="0px" y="0px" width="2100px"
	 height="2100px" viewBox="0 0 2100 2100" enable-background="new 0 0 2100 2100" xml:space="preserve">
<g id="Слой_1">
	<g>
		<g>
			<path d="M774.291,987.328v-50.237h51.331v9.488h-39.315v11.01h38.079v8.762h-38.079v11.485h39.315v9.492H774.291z"/>
			<path d="M907.729,987.255h-22.371c-4.677,0-8.333-0.546-10.973-1.633c-2.639-1.091-4.521-2.911-5.646-5.47
				c-1.125-2.555-1.687-6.1-1.687-10.637v-14.259c0.059-4.901,0.68-8.658,1.864-11.267s3.145-4.433,5.884-5.478
				c2.739-1.041,6.647-1.563,11.725-1.563h19.754c4.3,0,7.857,0.48,10.673,1.44c2.815,0.96,4.998,2.704,6.546,5.231
				c1.549,2.524,2.323,6.047,2.323,10.557h-12.458c0-2.64-0.704-4.506-2.111-5.601c-1.408-1.095-3.743-1.645-7.006-1.645h-15.409
				c-2.851,0-4.938,0.192-6.264,0.576c-1.325,0.38-2.241,1.172-2.748,2.374c-0.506,1.202-0.759,3.143-0.759,5.815v12.458
				c0,2.496,0.324,4.405,0.972,5.723c0.647,1.322,1.652,2.217,3.013,2.686c1.361,0.473,3.266,0.707,5.717,0.707h15.407
				c2.404,0,4.25-0.188,5.541-0.564c1.29-0.377,2.231-1.096,2.827-2.155c0.594-1.061,0.892-2.616,0.892-4.667h12.457
				c-0.024,4.609-0.527,8.14-1.51,10.594c-0.984,2.459-2.76,4.199-5.328,5.232C916.487,986.74,912.712,987.255,907.729,987.255z"/>
			<path d="M967.635,987.328v-50.237h12.016v40.253h31.047v9.984H967.635z"/>
			<path d="M1065.482,987.328h-12.016v-50.237h12.016V987.328z"/>
			<path d="M1108.632,987.328v-50.237h34.245c3.238,0,5.962,0.323,8.163,0.973c2.202,0.648,4.003,1.659,5.399,3.038
				c1.396,1.379,2.426,3.177,3.092,5.396c0.666,2.221,0.996,4.952,0.996,8.19c-0.022,4.24-0.631,7.667-1.828,10.275
				c-1.194,2.612-3.076,4.518-5.645,5.716c-2.568,1.202-5.914,1.806-10.035,1.806h-22.372v14.843H1108.632z M1120.647,962.502
				h20.056c1.99,0,3.557-0.273,4.701-0.814c1.141-0.542,1.945-1.379,2.412-2.505c0.465-1.126,0.695-2.628,0.695-4.502
				c0-2.643-0.553-4.571-1.659-5.785s-3.157-1.82-6.149-1.82h-20.056V962.502z"/>
			<path d="M1240.703,937.091c4.029,0,7.307,0.508,9.834,1.518c2.527,1.015,4.379,2.563,5.559,4.648
				c1.176,2.086,1.768,4.759,1.768,8.024h-12.016c-0.119-1.675-0.578-2.877-1.38-3.607c-0.803-0.729-2.396-1.095-4.79-1.095H1219.5
				c-3.865,0-5.797,1.736-5.797,5.213c0,2.098,0.484,3.48,1.45,4.145c0.966,0.665,2.414,0.999,4.347,0.999h21.93
				c3.181,0,5.746,0.153,7.701,0.469c1.955,0.311,3.621,0.96,4.994,1.951c1.371,0.987,2.408,2.493,3.109,4.514
				s1.051,4.752,1.051,8.189c0,3.557-0.586,6.461-1.758,8.712c-1.173,2.251-2.998,3.907-5.477,4.967
				c-2.48,1.061-5.711,1.591-9.694,1.591h-24.26c-4.241,0-7.593-0.508-10.055-1.521c-2.462-1.01-4.222-2.559-5.282-4.645
				c-1.06-2.082-1.59-4.778-1.59-8.09h12.297c0,1.261,0.578,2.371,1.732,3.327c1.154,0.96,2.556,1.437,4.205,1.437h20.125
				c2.676,0,4.645-0.438,5.912-1.321c1.266-0.884,1.899-2.316,1.899-4.306c0-1.307-0.214-2.371-0.636-3.2
				c-0.425-0.83-1.244-1.468-2.457-1.917c-1.213-0.445-2.909-0.668-5.088-0.668h-17.795c-3.593,0-6.553-0.208-8.879-0.619
				c-2.328-0.414-4.208-1.152-5.646-2.22c-1.437-1.068-2.487-2.589-3.154-4.571c-0.664-1.979-0.998-4.556-0.998-7.725
				c0-2.535,0.352-4.706,1.053-6.516c0.701-1.809,1.786-3.276,3.261-4.401c1.472-1.126,3.371-1.956,5.696-2.485
				c2.328-0.53,5.193-0.796,8.598-0.796H1240.703z"/>
			<path d="M1300.473,987.328v-50.237h51.331v9.488h-39.315v11.01h38.078v8.762h-38.078v11.485h39.315v9.492H1300.473z"/>
		</g>
		<g>
			<g>
				<linearGradient id="SVGID_1_" gradientUnits="userSpaceOnUse" x1="834.5923" y1="1114.2324" x2="834.5923" y2="1012.9313">
					<stop  offset="0" style="stop-color:#433F71"/>
					<stop  offset="1" style="stop-color:#9978B1"/>
				</linearGradient>
				<path fill="url(#SVGID_1_)" d="M858.78,1008.604c8.491,0,15.4,1.068,20.726,3.204c5.325,2.136,9.229,5.398,11.712,9.793
					c2.482,4.395,3.724,10.032,3.724,16.908h-25.325c-0.248-3.524-1.217-6.059-2.904-7.597c-1.689-1.54-5.053-2.309-10.093-2.309
					h-42.53c-8.144,0-12.214,3.663-12.214,10.986c0,4.419,1.017,7.331,3.054,8.733c2.035,1.401,5.089,2.103,9.161,2.103h46.216
					c6.704,0,12.117,0.331,16.238,0.987c4.121,0.659,7.628,2.03,10.521,4.116c2.892,2.084,5.077,5.257,6.554,9.515
					s2.216,10.013,2.216,17.261c0,7.499-1.236,13.618-3.706,18.36c-2.471,4.743-6.319,8.229-11.545,10.465
					c-5.226,2.234-12.035,3.352-20.427,3.352h-51.133c-8.938,0-16.001-1.065-21.189-3.201c-5.189-2.134-8.901-5.397-11.136-9.788
					c-2.233-4.393-3.352-10.075-3.352-17.05h25.92c0,2.652,1.216,4.99,3.649,7.011c2.433,2.021,5.387,3.03,8.864,3.03H854.2
					c5.635,0,9.788-0.929,12.456-2.788c2.669-1.859,4.004-4.885,4.004-9.073c0-2.752-0.447-5.002-1.341-6.749
					c-0.894-1.748-2.62-3.093-5.176-4.035c-2.558-0.941-6.133-1.412-10.726-1.412h-37.501c-7.573,0-13.812-0.437-18.714-1.304
					c-4.904-0.87-8.871-2.43-11.898-4.678c-3.03-2.248-5.246-5.46-6.648-9.634c-1.403-4.173-2.104-9.601-2.104-16.283
					c0-5.341,0.739-9.918,2.217-13.732c1.477-3.813,3.766-6.905,6.871-9.278c3.103-2.372,7.106-4.118,12.01-5.236
					c4.903-1.117,10.943-1.677,18.119-1.677H858.78z"/>
				<linearGradient id="SVGID_2_" gradientUnits="userSpaceOnUse" x1="1005.5952" y1="1114.2324" x2="1005.5952" y2="1012.9313">
					<stop  offset="0" style="stop-color:#433F71"/>
					<stop  offset="1" style="stop-color:#9978B1"/>
				</linearGradient>
				<path fill="url(#SVGID_2_)" d="M1031.147,1114.482l-25.478-71.987l-25.478,71.987h-37.21l-41.197-105.878h26.223l33.114,85.135
					h1.378l29.91-85.135h26.371l30.06,84.54h2.011l32.333-84.54h26.223l-41.012,105.878H1031.147z"/>
				<linearGradient id="SVGID_3_" gradientUnits="userSpaceOnUse" x1="1175.4004" y1="1114.2324" x2="1175.4004" y2="1012.9313">
					<stop  offset="0" style="stop-color:#433F71"/>
					<stop  offset="1" style="stop-color:#9978B1"/>
				</linearGradient>
				<path fill="url(#SVGID_3_)" d="M1118.271,1008.604h114.258v21.043h-44.689v84.835h-25.324v-84.835h-44.244V1008.604z"/>
				<linearGradient id="SVGID_4_" gradientUnits="userSpaceOnUse" x1="1301.7939" y1="1114.2324" x2="1301.7939" y2="1012.9313">
					<stop  offset="0" style="stop-color:#433F71"/>
					<stop  offset="1" style="stop-color:#9978B1"/>
				</linearGradient>
				<path fill="url(#SVGID_4_)" d="M1243.381,1114.482v-105.878h76.271c8.019,0,14.716,0.87,20.092,2.608
					c5.374,1.738,9.445,4.562,12.215,8.473c2.768,3.91,4.152,9.066,4.152,15.473c0,7.971-1.002,13.5-3.004,16.592
					c-2.003,3.091-5.379,5.394-10.131,6.907c5.967,1.987,10.331,4.675,13.091,8.063c2.76,3.39,4.14,8.933,4.14,16.629
					c0,7.499-1.271,13.537-3.816,18.118c-2.545,4.58-6.419,7.896-11.62,9.943c-5.201,2.049-11.849,3.072-19.942,3.072H1243.381z
					 M1268.705,1028.604v22.865h51.692c3.326,0,5.938-1.141,7.838-3.427c1.899-2.283,2.851-5.25,2.851-8.899
					c0-3.277-0.945-5.853-2.831-7.728c-1.889-1.874-4.556-2.812-8.008-2.812H1268.705z M1268.705,1070.24v24.244h50.769
					c4.492,0,7.822-0.372,9.995-1.117c2.17-0.745,3.616-1.98,4.335-3.705c0.72-1.727,1.079-4.228,1.079-7.506
					c0-3.027-0.317-5.354-0.949-6.981s-1.978-2.856-4.037-3.688c-2.061-0.832-5.237-1.247-9.53-1.247h-51.512H1268.705z"/>
				<linearGradient id="SVGID_5_" gradientUnits="userSpaceOnUse" x1="1424.0371" y1="1114.2324" x2="1424.0371" y2="1012.9318">
					<stop  offset="0" style="stop-color:#433F71"/>
					<stop  offset="1" style="stop-color:#9978B1"/>
				</linearGradient>
				<path fill="url(#SVGID_5_)" d="M1406.496,1039.293h35.381c7.125,0,13.133,1.279,18.023,3.836
					c4.892,2.556,8.547,6.076,10.969,10.558c2.42,4.48,3.691,9.59,3.816,15.325v15.864c-0.125,5.685-1.441,10.763-3.947,15.23
					c-2.509,4.47-6.2,7.984-11.08,10.541c-4.879,2.556-10.806,3.835-17.781,3.835h-35.381c-6.878,0-12.811-1.254-17.801-3.761
					c-4.989-2.508-8.777-6.021-11.358-10.54c-2.583-4.518-3.899-9.669-3.947-15.455v-15.715c0.048-5.636,1.309-10.708,3.78-15.214
					c2.47-4.506,6.187-8.05,11.153-10.633C1393.288,1040.584,1399.346,1039.293,1406.496,1039.293z M1449.511,1071.022
					c-0.149-9.56-5.587-14.338-16.312-14.338h-17.244c-5.933,0-10.291,1.141-13.071,3.427c-2.779,2.283-4.17,5.871-4.17,10.761
					v12.327c0,4.694,1.391,8.138,4.17,10.335c2.78,2.197,7.139,3.334,13.071,3.407h17.244c5.61,0,9.695-1.061,12.252-3.185
					c2.556-2.122,3.91-5.69,4.06-10.706V1071.022z"/>
				<linearGradient id="SVGID_6_" gradientUnits="userSpaceOnUse" x1="1531.0938" y1="1114.2324" x2="1531.0938" y2="1012.9319">
					<stop  offset="0" style="stop-color:#433F71"/>
					<stop  offset="1" style="stop-color:#9978B1"/>
				</linearGradient>
				<path fill="url(#SVGID_6_)" d="M1519.437,1056.535v27.148c0,8.938,4.01,13.407,12.028,13.407h10.541
					c3.997,0,6.647-1.415,7.949-4.246c1.305-2.829,1.955-5.883,1.955-9.161h25.326c0,6.132-0.882,11.416-2.645,15.847
					c-1.764,4.431-5.326,8.032-10.688,10.8c-5.362,2.77-13.122,4.152-23.276,4.152h-16.015c-6.38,0-11.873-1.123-16.479-3.37
					c-4.605-2.247-8.093-5.499-10.463-9.757c-2.372-4.259-3.558-9.242-3.558-14.953v-29.867h-9.161v-17.392h9.161v-14.524h25.324
					v14.524h47.298v17.392H1519.437z"/>
			</g>
		</g>
		<g>
			<g>
				<path opacity="0.05" fill-rule="evenodd" clip-rule="evenodd" fill="#1A171B" d="M740.905,1143.671
					c0,5.228-54.153,9.467-120.954,9.467c-66.804,0-120.957-4.239-120.957-9.467c0-5.227,54.153-9.469,120.957-9.469
					C686.753,1134.202,740.904,1138.444,740.905,1143.671L740.905,1143.671L740.905,1143.671z"/>
				<path opacity="0.05" fill-rule="evenodd" clip-rule="evenodd" fill="#1A171B" d="M714.616,1142.968
					c0,2.906-43.903,5.261-98.063,5.261c-54.158,0-98.064-2.354-98.064-5.257c0-2.908,43.902-5.263,98.064-5.263
					C670.712,1137.709,714.616,1140.063,714.616,1142.968L714.616,1142.968L714.616,1142.968z"/>
				<path opacity="0.05" fill-rule="evenodd" clip-rule="evenodd" fill="#1A171B" d="M687.737,1141.802
					c0,1.228-30.683,2.219-68.527,2.219c-37.846,0-68.527-0.991-68.527-2.219c0.002-1.229,30.68-2.222,68.527-2.222
					C657.055,1139.58,687.737,1140.573,687.737,1141.802L687.737,1141.802L687.737,1141.802z"/>
				<path opacity="0.1" fill-rule="evenodd" clip-rule="evenodd" fill="#1A171B" d="M636.936,1141.567
					c0,0.734-10.449,1.329-23.338,1.329c-12.888-0.004-23.335-0.595-23.335-1.329c0-0.733,10.446-1.329,23.335-1.329
					S636.932,1140.834,636.936,1141.567L636.936,1141.567L636.936,1141.567z"/>
			</g>
			<g>
				<linearGradient id="SVGID_7_" gradientUnits="userSpaceOnUse" x1="614.54" y1="922.96" x2="614.54" y2="905.2559">
					<stop  offset="0" style="stop-color:#433F71"/>
					<stop  offset="1" style="stop-color:#9978B1"/>
				</linearGradient>
				<polygon fill="url(#SVGID_7_)" points="609.623,923 614.786,905.251 619.457,923 				"/>
				<linearGradient id="SVGID_8_" gradientUnits="userSpaceOnUse" x1="614.7856" y1="908.8457" x2="614.7856" y2="866.1767">
					<stop  offset="0" style="stop-color:#433F71"/>
					<stop  offset="1" style="stop-color:#9978B1"/>
				</linearGradient>
				<circle fill="url(#SVGID_8_)" cx="614.786" cy="887.554" r="21.388"/>
				<linearGradient id="SVGID_9_" gradientUnits="userSpaceOnUse" x1="525.813" y1="1098.9951" x2="525.813" y2="1004.171">
					<stop  offset="0" style="stop-color:#433F71"/>
					<stop  offset="1" style="stop-color:#9978B1"/>
				</linearGradient>
				<path fill="url(#SVGID_9_)" d="M511.753,1015.863c0-3.965,0.248-7.871,0.687-11.719c-9.581,10.1-15.414,23.449-15.414,38.093
					c0,30.653,25.543,55.653,57.572,56.973C528.665,1080.603,511.753,1050.216,511.753,1015.863z"/>
				<linearGradient id="SVGID_10_" gradientUnits="userSpaceOnUse" x1="521.6113" y1="1011.7529" x2="521.6113" y2="1092.8876">
					<stop  offset="0" style="stop-color:#FFFFFF;stop-opacity:0.5"/>
					<stop  offset="1" style="stop-color:#FFFFFF;stop-opacity:0"/>
				</linearGradient>
				<path fill="url(#SVGID_10_)" d="M509.215,1020.494c0-3.016,0.188-5.989,0.522-8.916c-7.289,7.685-9.761,19.271-9.761,30.413
					c0,23.325,12.538,42.777,43.269,51.136C521.611,1073.214,509.215,1046.632,509.215,1020.494z"/>
				
					<linearGradient id="SVGID_11_" gradientUnits="userSpaceOnUse" x1="1074.4521" y1="1098.9951" x2="1074.4521" y2="1004.171" gradientTransform="matrix(-1 0 0 1 1777.2725 0)">
					<stop  offset="0" style="stop-color:#433F71"/>
					<stop  offset="1" style="stop-color:#9978B1"/>
				</linearGradient>
				<path fill="url(#SVGID_11_)" d="M716.879,1015.863c0-3.965-0.248-7.871-0.687-11.719c9.581,10.1,15.414,23.449,15.414,38.093
					c0,30.653-25.543,55.653-57.572,56.973C699.968,1080.603,716.879,1050.216,716.879,1015.863z"/>
				
					<linearGradient id="SVGID_12_" gradientUnits="userSpaceOnUse" x1="1070.252" y1="1011.7529" x2="1070.252" y2="1092.8876" gradientTransform="matrix(-1 0 0 1 1777.2725 0)">
					<stop  offset="0" style="stop-color:#FFFFFF;stop-opacity:0.5"/>
					<stop  offset="1" style="stop-color:#FFFFFF;stop-opacity:0"/>
				</linearGradient>
				<path fill="url(#SVGID_12_)" d="M719.417,1020.494c0-3.016-0.188-5.989-0.522-8.916c7.289,7.685,9.761,19.271,9.761,30.413
					c0,23.325-12.538,42.777-43.269,51.136C707.021,1073.214,719.417,1046.632,719.417,1020.494z"/>
				<g>
					
						<linearGradient id="SVGID_13_" gradientUnits="userSpaceOnUse" x1="590.4917" y1="1128.1787" x2="590.4917" y2="1101.9104" gradientTransform="matrix(0.9998 -0.0213 0.0213 0.9998 -24.0351 18.2891)">
						<stop  offset="0" style="stop-color:#433F71"/>
						<stop  offset="1" style="stop-color:#9978B1"/>
					</linearGradient>
					<path fill="url(#SVGID_13_)" d="M566.504,1107.891c0,0,16.854,12.79,46.92,13.555c0.148,6.902,0.088,6.773,0.022,11.787
						C587.5,1133.263,566.504,1107.891,566.504,1107.891z"/>
					<linearGradient id="SVGID_14_" gradientUnits="userSpaceOnUse" x1="602.6445" y1="1131.1533" x2="602.6445" y2="1119.0288">
						<stop  offset="0" style="stop-color:#FFFFFF;stop-opacity:0.5"/>
						<stop  offset="1" style="stop-color:#FFFFFF;stop-opacity:0"/>
					</linearGradient>
					<path fill="url(#SVGID_14_)" d="M593.509,1119.025c-1.111,1.027-1.736,2.146-1.736,3.324c0,4.646,9.551,8.453,21.704,8.831
						c0.048-3.09,0.072-3.936-0.053-9.735C605.95,1121.255,599.295,1120.319,593.509,1119.025z"/>
				</g>
				<g>
					
						<linearGradient id="SVGID_15_" gradientUnits="userSpaceOnUse" x1="1058.0459" y1="1138.1396" x2="1058.0459" y2="1111.8713" gradientTransform="matrix(-0.9998 -0.0213 -0.0213 0.9998 1721.459 18.2891)">
						<stop  offset="0" style="stop-color:#433F71"/>
						<stop  offset="1" style="stop-color:#9978B1"/>
					</linearGradient>
					<path fill="url(#SVGID_15_)" d="M663.247,1107.891c0,0-16.854,12.79-46.921,13.555c-0.147,6.902-0.088,6.773-0.022,11.787
						C642.251,1133.263,663.247,1107.891,663.247,1107.891z"/>
					
						<linearGradient id="SVGID_16_" gradientUnits="userSpaceOnUse" x1="1070.3174" y1="1131.1533" x2="1070.3174" y2="1119.0288" gradientTransform="matrix(-1 0 0 1 1697.4238 0)">
						<stop  offset="0" style="stop-color:#FFFFFF;stop-opacity:0.5"/>
						<stop  offset="1" style="stop-color:#FFFFFF;stop-opacity:0"/>
					</linearGradient>
					<path fill="url(#SVGID_16_)" d="M636.242,1119.025c1.111,1.027,1.736,2.146,1.736,3.324c0,4.646-9.552,8.453-21.705,8.831
						c-0.049-3.09-0.072-3.936,0.053-9.735C623.801,1121.255,630.456,1120.319,636.242,1119.025z"/>
				</g>
				<linearGradient id="SVGID_17_" gradientUnits="userSpaceOnUse" x1="614.2944" y1="1109.1064" x2="614.2944" y2="922.0991">
					<stop  offset="0" style="stop-color:#454173"/>
					<stop  offset="1" style="stop-color:#9978B1"/>
				</linearGradient>
				<path fill="url(#SVGID_17_)" d="M614.294,922.196c-51.731,0-93.667,41.936-93.667,93.667c0,51.729,41.936,93.666,93.667,93.666
					s93.667-41.938,93.667-93.666C707.961,964.132,666.025,922.196,614.294,922.196z M587.989,1026.012
					c-12.22,0-22.126-9.906-22.126-22.126c0-12.219,9.906-22.126,22.126-22.126c12.22,0,22.125,9.907,22.125,22.126
					C610.115,1016.105,600.209,1026.012,587.989,1026.012z M641.091,1026.012c-12.22,0-22.126-9.906-22.126-22.126
					c0-12.219,9.906-22.126,22.126-22.126s22.126,9.907,22.126,22.126C663.217,1016.105,653.312,1026.012,641.091,1026.012z"/>
				<linearGradient id="SVGID_18_" gradientUnits="userSpaceOnUse" x1="613.9385" y1="1110.6143" x2="613.4468" y2="1061.444">
					<stop  offset="0" style="stop-color:#FFFFFF;stop-opacity:0.5"/>
					<stop  offset="1" style="stop-color:#FFFFFF;stop-opacity:0"/>
				</linearGradient>
				<ellipse fill="url(#SVGID_18_)" cx="613.557" cy="1072.477" rx="52.119" ry="31.222"/>
				<linearGradient id="SVGID_19_" gradientUnits="userSpaceOnUse" x1="613.1821" y1="929.2632" x2="614.8804" y2="1037.3835">
					<stop  offset="0" style="stop-color:#FFFFFF;stop-opacity:0.5"/>
					<stop  offset="0.0821" style="stop-color:#FFFFFF;stop-opacity:0.459"/>
					<stop  offset="1" style="stop-color:#FFFFFF;stop-opacity:0"/>
				</linearGradient>
				<ellipse fill="url(#SVGID_19_)" cx="614.316" cy="1001.49" rx="75.496" ry="72.707"/>
				<linearGradient id="SVGID_20_" gradientUnits="userSpaceOnUse" x1="614.7861" y1="867.5039" x2="614.7861" y2="892.6998">
					<stop  offset="0" style="stop-color:#FFFFFF;stop-opacity:0.5"/>
					<stop  offset="1" style="stop-color:#FFFFFF;stop-opacity:0"/>
				</linearGradient>
				<ellipse fill="url(#SVGID_20_)" cx="614.786" cy="879.796" rx="15.242" ry="12.292"/>
			</g>
		</g>
	</g>
</g>
<g id="Слой_2">
	<g>
		<linearGradient id="SVGID_21_" gradientUnits="userSpaceOnUse" x1="1059.5" y1="1597.0586" x2="1059.5" y2="1331.5049">
			<stop  offset="0" style="stop-color:#454173"/>
			<stop  offset="1" style="stop-color:#9978B1"/>
		</linearGradient>
		<path fill="url(#SVGID_21_)" d="M1191,1566.759c0,16.149-13.092,29.241-29.241,29.241H957.241
			c-16.149,0-29.241-13.092-29.241-29.241v-204.518c0-16.149,13.092-29.241,29.241-29.241h204.518
			c16.149,0,29.241,13.092,29.241,29.241V1566.759z"/>
		<g>
			<path fill="#FFFFFF" d="M972.265,1479.554c0-3.392,0.212-6.733,0.588-10.024c-8.195,8.639-13.185,20.059-13.185,32.584
				c0,26.22,21.849,47.604,49.246,48.732C986.731,1534.93,972.265,1508.938,972.265,1479.554z"/>
			<path fill="#FFFFFF" d="M1147.137,1469.529c0.376,3.291,0.588,6.633,0.588,10.024c0,29.384-14.466,55.376-36.648,71.292
				c27.396-1.128,49.245-22.513,49.245-48.732C1160.321,1489.588,1155.332,1478.168,1147.137,1469.529z"/>
			<path fill="#FFFFFF" d="M1019.097,1558.271c0,0,17.959,21.703,40.154,21.677c0.056-4.289,0.107-4.178-0.02-10.083
				C1033.513,1569.211,1019.097,1558.271,1019.097,1558.271z"/>
			<path fill="#FFFFFF" d="M1061.695,1579.948c22.194,0.026,40.153-21.677,40.153-21.677s-14.417,10.939-40.135,11.594
				C1061.588,1575.771,1061.639,1575.659,1061.695,1579.948z"/>
			<path fill="#FFFFFF" d="M1140.096,1479.554c0-42.819-33.588-77.79-75.854-80.008l-3.024-11.49
				c9.72-0.434,17.475-8.427,17.475-18.255c0-10.104-8.191-18.296-18.295-18.296s-18.295,8.192-18.295,18.296
				c0,9.798,7.71,17.774,17.391,18.249l-3.339,11.476c-42.474,1.996-76.297,37.061-76.297,80.028
				c0,44.247,35.871,80.119,80.121,80.119C1104.225,1559.673,1140.096,1523.801,1140.096,1479.554z M1037.476,1488.234
				c-10.453,0-18.926-8.474-18.926-18.927c0-10.45,8.473-18.926,18.926-18.926c10.452,0,18.925,8.476,18.925,18.926
				C1056.4,1479.761,1047.928,1488.234,1037.476,1488.234z M1082.897,1488.234c-10.453,0-18.927-8.474-18.927-18.927
				c0-10.45,8.474-18.926,18.927-18.926s18.927,8.476,18.927,18.926C1101.824,1479.761,1093.351,1488.234,1082.897,1488.234z"/>
		</g>
		<linearGradient id="SVGID_22_" gradientUnits="userSpaceOnUse" x1="1059.5" y1="1343.0713" x2="1059.5" y2="1454.1576">
			<stop  offset="0" style="stop-color:#FFFFFF;stop-opacity:0.5"/>
			<stop  offset="1" style="stop-color:#FFFFFF;stop-opacity:0"/>
		</linearGradient>
		<path fill="url(#SVGID_22_)" d="M1179,1423.368c0,18.574-14.387,33.632-32.609,33.632H972.996
			c-18.223,0-32.996-15.058-32.996-33.632v-47.736c0-18.574,14.773-33.632,32.996-33.632h173.395
			c18.223,0,32.609,15.058,32.609,33.632V1423.368z"/>
		
			<linearGradient id="SVGID_23_" gradientUnits="userSpaceOnUse" x1="270" y1="1630.6807" x2="270" y2="1674.1492" gradientTransform="matrix(-1 0 0 -1 1330 3227)">
			<stop  offset="0" style="stop-color:#FFFFFF;stop-opacity:0.5"/>
			<stop  offset="1" style="stop-color:#FFFFFF;stop-opacity:0"/>
		</linearGradient>
		<path fill="url(#SVGID_23_)" d="M950,1553.204c0-7.258,13.597-13.204,30.368-13.204h159.585c16.771,0,30.047,5.946,30.047,13.204
			v18.654c0,7.258-13.275,13.142-30.047,13.142H980.368c-16.771,0-30.368-5.884-30.368-13.142V1553.204z"/>
	</g>
</g>
</svg>
